<svg width="32" height="32" viewBox="0 0 32 32" fill="none" xmlns="http://www.w3.org/2000/svg">
<path d="M0 16C0 24.8366 7.16344 32 16 32C24.8366 32 32 24.8366 32 16C32 7.16344 24.8366 0 16 0C7.16344 0 0 7.16344 0 16Z" fill="url(#paint0_linear_1402_4852)"/>
<path d="M15.9999 20.8C13.2999 20.8 12.0999 19.4 12.0999 18.4C12.0999 18.2 12.1999 17.9 12.3999 17.8C12.5999 17.6 12.7999 17.6 12.9999 17.6C14.0999 17.6 13.7999 19.3 15.9999 19.3C17.0999 19.3 17.6999 18.6 17.6999 18C17.6999 17.6 17.4999 17.2 16.7999 17L14.3999 16.4C12.4999 15.9 12.1999 14.8 12.1999 13.9C12.1999 11.8 14.0999 11.1 15.8999 11.1C17.4999 11.1 19.4999 12 19.4999 13.2C19.4999 13.7 19.0999 14 18.4999 14C17.4999 14 17.6999 12.6 15.6999 12.6C14.6999 12.6 14.1999 13.1 14.1999 13.7C14.1999 14.3 14.9999 14.6 15.5999 14.7L17.3999 15.1C19.2999 15.5 19.7999 16.7 19.7999 17.7C19.7999 19.6 18.4999 20.8 15.9999 20.8ZM23.3999 17.3C23.4999 16.9 23.4999 16.4 23.4999 16C23.4999 13.8 22.4999 11.7 20.7999 10.2C19.0999 8.7 16.7999 8.2 14.5999 8.5C13.9999 8.2 13.1999 8 12.3999 8C10.7999 8 9.2999 8.9 8.4999 10.3C7.6999 11.7 7.6999 13.4 8.4999 14.8C8.0999 17.2 8.79988 19.7 10.5999 21.5C12.2999 23.2 14.7999 24 17.1999 23.6C17.8999 24 18.5999 24.2 19.3999 24.2C20.9999 24.2 22.4999 23.3 23.2999 21.9C24.0999 20.4 24.1999 18.7 23.3999 17.3Z" fill="white"/>
<defs>
<linearGradient id="paint0_linear_1402_4852" x1="19.8737" y1="14.4842" x2="5.72632" y2="28.4632" gradientUnits="userSpaceOnUse">
<stop stop-color="#4BADE9"/>
<stop offset="1" stop-color="#7E73F2"/>
</linearGradient>
</defs>
</svg>
