<svg width="68" height="68" viewBox="0 0 68 68" fill="none" xmlns="http://www.w3.org/2000/svg">
<path d="M0 15C0 6.71573 6.71573 0 15 0H53C61.2843 0 68 6.71573 68 15V53C68 61.2843 61.2843 68 53 68H15C6.71573 68 0 61.2843 0 53V15Z" fill="url(#paint0_linear_1402_4881)"/>
<path d="M45.1601 10.2H34.3208L28.2829 17.5274C27.9442 18.027 27.6055 18.36 28.2237 18.36H37.7081C40.1921 16.3061 45.3294 12.0318 46.0069 11.3657C46.6843 10.6996 45.7246 10.311 45.1601 10.2Z" fill="white"/>
<path d="M27.8714 20.74H17.7707C16.8434 20.74 16.9428 21.8621 17.1084 22.4232L27.5975 43.4628L27.8714 54.6558L40.2904 54.74V54.6558V43.4628C43.5469 36.4496 50.3573 22.4152 50.7223 21.7499C51.2763 20.74 50.9451 20.74 50.2255 20.74H39.7936C39.2637 22.0865 35.9851 25.1162 33.3358 24.7796C31.6799 24.7796 29.0305 22.2548 27.8714 20.74Z" fill="white"/>
<defs>
<linearGradient id="paint0_linear_1402_4881" x1="42.2316" y1="30.7789" x2="12.1684" y2="60.4842" gradientUnits="userSpaceOnUse">
<stop stop-color="#4BADE9"/>
<stop offset="1" stop-color="#7E73F2"/>
</linearGradient>
</defs>
</svg>
