<svg width="592" height="390" viewBox="0 0 592 390" fill="none" xmlns="http://www.w3.org/2000/svg">
<path d="M19.0119 387.21C17.3251 387.526 17.5632 390.012 19.2774 390L280.556 388.498C303.083 388.384 325.531 385.774 347.479 380.705L591.054 324.487C592.452 324.164 592.241 322.115 590.808 322.084L392.188 318.049" fill="#361E46"/>
<path d="M576.096 275.201L576.307 278.631L568.966 278.358L569.122 267.271L273.739 262.112C273.739 262.112 289.764 301.678 291.865 301.788C293.962 301.893 568.728 295.399 568.728 295.399L568.794 290.689H577.049L577.404 296.473H584.315L585.619 274.545" fill="#221130"/>
<path d="M582.253 277.328V293.331H586.299L587.009 277.335L582.253 277.328Z" fill="#FF7001"/>
<path d="M541.492 271.263C532.945 271.263 526.018 284.325 526.018 300.437C526.018 316.546 532.945 329.607 541.492 329.607H558.38V271.263" fill="#221130"/>
<path d="M573.858 300.437C573.858 316.546 566.927 329.607 558.38 329.607C549.837 329.607 542.906 316.546 542.906 300.437C542.906 284.325 549.837 271.263 558.38 271.263C566.927 271.263 573.858 284.325 573.858 300.437Z" fill="#221130"/>
<path d="M569.122 300.437C569.122 310.162 564.936 318.049 559.778 318.049C554.62 318.049 550.434 310.162 550.434 300.437C550.434 290.709 554.62 282.822 559.778 282.822C564.936 282.822 569.122 290.709 569.122 300.437Z" fill="#361E46"/>
<path d="M564.179 300.437C564.179 305.015 562.207 308.73 559.778 308.73C557.349 308.73 555.377 305.015 555.377 300.437C555.377 295.856 557.349 292.141 559.778 292.141C562.207 292.141 564.179 295.856 564.179 300.437Z" fill="#4C2D5E"/>
<path d="M494.479 271.084C484.261 271.084 475.975 286.701 475.975 305.967C475.975 325.229 484.261 340.846 494.479 340.846H514.675V271.084" fill="#221130"/>
<path d="M533.175 305.967C533.175 325.229 524.893 340.846 514.675 340.846C504.452 340.846 496.17 325.229 496.17 305.967C496.17 286.701 504.452 271.084 514.675 271.084C524.893 271.084 533.175 286.701 533.175 305.967Z" fill="#221130"/>
<path d="M527.514 305.967C527.514 317.596 522.512 327.024 516.342 327.024C510.173 327.024 505.175 317.596 505.175 305.967C505.175 294.334 510.173 284.906 516.342 284.906C522.512 284.906 527.514 294.334 527.514 305.967Z" fill="#361E46"/>
<path d="M521.606 305.967C521.606 311.442 519.247 315.883 516.342 315.883C513.437 315.883 511.083 311.442 511.083 305.967C511.083 300.488 513.437 296.047 516.342 296.047C519.247 296.047 521.606 300.488 521.606 305.967Z" fill="#4C2D5E"/>
<path d="M461.606 278.935V310.061L500.821 304.133V278.791L461.606 278.935Z" fill="#4C2D5E"/>
<path d="M461.606 278.935H435.327L438.701 310.06H461.606V278.935Z" fill="#361E46"/>
<path d="M407.928 267.271C395.12 267.271 384.742 286.842 384.742 310.981C384.742 335.121 395.12 354.692 407.928 354.692H433.23V267.271" fill="#221130"/>
<path d="M456.421 310.981C456.421 335.121 446.038 354.692 433.234 354.692C420.427 354.692 410.044 335.121 410.044 310.981C410.044 286.842 420.427 267.271 433.234 267.271C446.038 267.271 456.421 286.842 456.421 310.981Z" fill="#221130"/>
<path d="M449.326 310.981C449.326 325.553 443.055 337.369 435.327 337.369C427.596 337.369 421.329 325.553 421.329 310.981C421.329 296.406 427.596 284.594 435.327 284.594C443.055 284.594 449.326 296.406 449.326 310.981Z" fill="#361E46"/>
<path d="M441.919 310.981C441.919 317.846 438.967 323.407 435.327 323.407C431.684 323.407 428.736 317.846 428.736 310.981C428.736 304.117 431.684 298.556 435.327 298.556C438.967 298.556 441.919 304.117 441.919 310.981Z" fill="#4C2D5E"/>
<path d="M391.235 269.601H295.27L332.727 346.77L381.567 341.521C389.224 340.702 394.89 334.025 394.457 326.341" fill="#FF7001"/>
<path d="M317.64 269.601H264.95C271.182 281.507 282.197 308.543 278.042 345.205L332.727 346.77C334.629 339.273 335.695 330.883 335.695 322.021C335.695 298.642 328.276 278.553 317.64 269.601Z" fill="#221130"/>
<path d="M343.68 318.119L344.18 330.251L353.329 329.607L353.985 318.119H343.68Z" fill="#DA5100"/>
<path d="M342.267 292.04L343.68 305.339H353.329L353.985 291.201L342.267 292.04Z" fill="#DA5100"/>
<path d="M332.868 279.025L334.563 285.464L387.862 284.594V278.674L332.868 279.025Z" fill="#DA5100"/>
<path d="M372.587 319.379C372.587 324.015 370.283 327.777 367.44 327.777C364.598 327.777 362.294 324.015 362.294 319.379C362.294 314.739 364.598 310.981 367.44 310.981C370.283 310.981 372.587 314.739 372.587 319.379Z" fill="#FFBF29"/>
<path d="M334.028 0L334.894 274.167L134.478 275.724L123.139 10.0173L334.028 0Z" fill="#4C2D5E"/>
<path d="M136.661 25.693L146.399 267.033L320.697 262.788V17.2952L136.661 25.693Z" fill="#603A73"/>
<path d="M133.119 22.3058L133.604 26.3721C133.822 28.2101 135.372 29.5759 137.18 29.5251L156.036 28.9827C157.832 28.932 159.296 27.4998 159.433 25.6696L159.695 22.1458C159.847 20.062 158.238 18.2903 156.2 18.2903H136.595C134.494 18.2903 132.866 20.1712 133.119 22.3058ZM298.85 15.1762L320.611 13.9626C321.603 13.908 322.419 14.8172 322.361 15.9138L322.005 22.5165C321.955 23.4921 321.224 24.2492 320.342 24.2492H299.557C298.722 24.2492 298.011 23.5624 297.906 22.6414L297.281 17.2523C297.156 16.1869 297.882 15.2309 298.85 15.1762Z" fill="#FFA722"/>
<path d="M334.028 0L591.34 114.584L588.841 270.128L334.895 274.167L334.028 0Z" fill="#361E46"/>
<path d="M352.981 29.4861L352.071 257.718L579.504 258.475L575.467 122.701L352.981 29.4861Z" fill="#221130"/>
<path d="M510.735 95.58L506.799 93.9294V258.234L510.735 258.245V95.58ZM482.082 83.5725L478.146 81.9258V258.14L482.082 258.152V83.5725ZM496.409 89.5782L492.473 87.9276V258.187L496.409 258.198V89.5782ZM525.061 101.582L521.125 99.9312V258.28L525.061 258.292V101.582ZM568.04 119.587L564.104 117.937V258.425L568.04 258.436V119.587ZM539.388 107.584L535.452 105.933V258.327L539.388 258.343V107.584ZM553.714 113.585L549.778 111.935V258.374L553.714 258.39V113.585ZM363.532 257.757L367.472 257.773V35.5542L363.532 33.9074V257.757ZM396.124 47.5617L392.184 45.911V257.855L396.124 257.867V47.5617ZM381.798 41.556L377.858 39.9092V257.804L381.798 257.82V41.556ZM467.756 77.5707L463.82 75.924V258.089L467.756 258.105V77.5707ZM410.451 53.5635L406.511 51.9128V257.902L410.451 257.914V53.5635ZM453.43 71.5689L449.494 69.9182V258.042L453.43 258.058V71.5689ZM439.103 65.5671L435.163 63.9164V257.995L439.103 258.007V65.5671ZM424.777 257.96L420.837 257.949V57.9146L424.777 59.5653V257.96Z" fill="#361E46"/>
<path d="M347.55 255.439V259.041C347.55 259.853 348.21 260.509 349.018 260.509H361.911C362.692 260.509 363.337 259.9 363.376 259.119L363.532 256.196C363.575 255.385 362.95 254.698 362.142 254.655L349.096 253.972C348.257 253.929 347.55 254.597 347.55 255.439ZM570.86 257.715L570.985 259.061C571.035 259.584 571.473 259.982 572 259.982H580.84C581.402 259.982 581.855 259.529 581.855 258.963V257.621C581.855 257.059 581.402 256.602 580.84 256.602H571.871C571.273 256.602 570.801 257.117 570.86 257.715ZM565.522 118.292V120.216C565.522 120.633 565.783 121.004 566.174 121.144L575.373 124.492C575.979 124.715 576.627 124.309 576.701 123.673L576.92 121.695C576.97 121.234 576.697 120.801 576.26 120.649L566.842 117.351C566.197 117.129 565.522 117.605 565.522 118.292ZM354.703 27.1018L370.349 32.6119C371.013 32.846 371.45 33.4157 371.45 34.0479V37.4859C371.45 38.5746 370.217 39.32 369.073 38.9258L353.426 33.5835C352.755 33.3533 352.31 32.7797 352.31 32.1436V28.5378C352.31 27.4452 353.555 26.6998 354.703 27.1018Z" fill="#FF7001"/>
<path d="M29.9804 162.053C31.597 175.223 31.351 189.529 29.8672 204.584C29.5548 207.761 27.0011 210.27 23.811 210.457C18.6763 210.754 13.1707 210.516 8.39135 209.911C5.48625 209.544 3.22934 207.206 2.85449 204.299C0.945089 189.486 -0.23413 175.418 0.0391983 161.6C0.109483 158.06 3.01458 155.255 6.55614 155.251C12.4483 155.243 18.8755 155.645 24.4514 156.418C27.3604 156.819 29.6251 159.137 29.9804 162.053Z" fill="#221130"/>
<path d="M27.837 140.956C27.7745 139.567 28.2626 138.24 29.2114 137.226C30.1642 136.207 31.4527 135.626 32.8428 135.587L37.0286 135.474C37.4386 134.564 38.3484 133.932 39.4144 133.932H46.4428C47.8915 133.932 49.0668 135.103 49.0668 136.551V138.412C49.0668 139.86 47.8915 141.035 46.4428 141.035H39.4144C38.4968 141.035 37.6963 140.566 37.2239 139.856L32.9599 139.973C32.6827 139.981 32.5031 140.125 32.425 140.215C32.343 140.301 32.2063 140.488 32.218 140.769L23.5886 204.787L34.8537 209.743V209.673C34.8537 207.472 36.6381 205.685 38.8443 205.685H45.0762C47.2785 205.685 49.0668 207.472 49.0668 209.673V215.901C49.0668 218.106 47.2785 219.889 45.0762 219.889H38.8443C36.6381 219.889 34.8537 218.106 34.8537 215.901V214.535L19.3247 207.702" fill="#221130"/>
<path d="M111.624 278.674H82.1358C67.212 278.674 55.1152 301.479 55.1152 329.607C55.1152 357.739 67.212 380.541 82.1358 380.541H111.624C126.544 380.541 138.641 357.739 138.641 329.607C138.641 301.479 126.544 278.674 111.624 278.674Z" fill="#221130"/>
<path d="M32.2881 367.398H252.498V348.085H32.2881V367.398Z" fill="#361E46"/>
<path d="M261.236 278.674C246.313 278.674 234.216 301.479 234.216 329.607C234.216 357.739 246.313 380.541 261.236 380.541H290.725V278.674" fill="#221130"/>
<path d="M317.741 329.607C317.741 357.739 305.644 380.541 290.725 380.541C275.801 380.541 263.704 357.739 263.704 329.607C263.704 301.479 275.801 278.674 290.725 278.674C305.644 278.674 317.741 301.479 317.741 329.607Z" fill="#221130"/>
<path d="M309.475 329.607C309.475 346.59 302.169 360.358 293.161 360.358C284.153 360.358 276.851 346.59 276.851 329.607C276.851 312.624 284.153 298.861 293.161 298.861C302.169 298.861 309.475 312.624 309.475 329.607Z" fill="#361E46"/>
<path d="M300.842 329.607C300.842 337.607 297.405 344.089 293.161 344.089C288.921 344.089 285.48 337.607 285.48 329.607C285.48 321.611 288.921 315.13 293.161 315.13C297.405 315.13 300.842 321.611 300.842 329.607Z" fill="#4C2D5E"/>
<path d="M141.019 39.9092C106.349 40.9824 74.3185 73.0479 57.3057 108.805C25.3926 175.879 31.359 279.322 36.0095 316.749C36.8763 323.723 41.394 328.831 46.6888 328.831H211.487L300.885 36.8576" fill="#FFA722"/>
<path d="M235.196 38.1103L234.068 38.1337C230.608 45.0135 225.313 54.184 218.039 63.2023C205.329 78.9444 183.916 97.2893 153.111 97.2893C151.874 97.2893 150.62 97.258 149.351 97.1995C134.81 96.501 126.079 92.5089 123.401 85.3286C118.602 72.4626 133.951 51.9909 144.646 39.839L143.217 39.8663C132.397 52.2172 117.528 72.4353 122.467 85.6759C125.298 93.2699 134.326 97.4805 149.3 98.1985C150.593 98.257 151.862 98.2883 153.119 98.2883C184.318 98.2883 205.989 79.7326 218.831 63.8072C226.317 54.5274 231.717 45.0915 235.196 38.1103Z" fill="#FF7001"/>
<path d="M55.4155 112.934H277.589L278.202 110.936H56.3214C56.0129 111.599 55.7123 112.266 55.4155 112.934Z" fill="#FF7001"/>
<path d="M276.851 259.428C276.851 259.428 298.292 258.476 312.435 259.896C314.375 214.164 316.296 151.805 311.138 74.4606C310.588 66.1955 305.964 36.3621 299.76 36.8889C274.055 39.0742 239.569 77.7035 227.968 108.805C197.804 189.658 211.486 328.831 211.486 328.831L254.848 328.179C250.908 263.908 276.851 259.428 276.851 259.428Z" fill="#FF7001"/>
<path d="M226.484 112.934H313.2C313.173 112.27 313.145 111.607 313.118 110.936H227.199C226.961 111.603 226.719 112.263 226.484 112.934Z" fill="#DA5100"/>
<path d="M58.3091 281.675L68.0786 314.014H162.397L174.693 281.675H58.3091Z" fill="#221130"/>
<path d="M35.6539 233.13L31.2611 235.978C25.7243 239.569 22.3701 245.805 22.3701 252.505V273.433C22.3701 279.669 25.2752 285.53 30.199 289.218L34.9315 292.765C37.2119 294.475 39.9647 295.396 42.7917 295.396H203.216L206.309 292.898C212.748 287.7 216.5 279.774 216.5 271.392V236.15L202.146 228.822" fill="#FFA722"/>
<path d="M85.0448 231.413L87.8366 237.649C88.3911 238.886 89.6211 239.682 90.976 239.682H133.483C134.81 239.682 136.017 238.925 136.587 237.727L139.191 232.283C140.269 230.027 138.648 227.405 136.146 227.366L88.2427 226.574C85.7242 226.531 84.0178 229.118 85.0448 231.413Z" fill="#FFF5DF"/>
<path d="M148.297 238.769L144.497 243.709C143.416 245.118 141.752 245.953 139.976 245.988L90.3901 246.971C88.7618 247.003 87.1921 246.355 86.0636 245.18L80.2964 239.194C79.1797 238.031 77.6256 237.383 76.013 237.403L56.0248 237.641C52.4949 237.68 49.8319 240.817 50.3044 244.314C51.5188 253.277 54.1232 261.597 58.7307 268.984C63.3149 276.348 71.4835 280.719 80.1636 280.719H147.567C155.04 280.719 162.178 277.468 166.973 271.736C173.935 263.412 178.195 253.8 180.159 243.1C180.823 239.494 177.996 236.189 174.329 236.232L152.865 236.486C151.073 236.509 149.39 237.348 148.297 238.769Z" fill="#4C2D5E"/>
<path d="M177.597 242.784C176.961 246.214 176.075 249.508 174.942 252.653C173.673 256.177 170.261 258.476 166.512 258.476H62.7173C58.8048 258.476 55.3765 255.834 54.412 252.048C53.7716 249.539 53.2601 246.909 52.8775 244.138C52.7642 243.319 52.8775 242.453 53.3226 241.754C53.9435 240.778 54.9392 240.224 56.0559 240.213L76.0441 239.975C76.9578 239.975 77.8324 240.345 78.4689 241.005L84.2088 246.964C85.8292 248.649 88.0901 249.609 90.4407 249.543L140.03 248.56C142.6 248.513 144.97 247.315 146.536 245.278L150.339 240.337C150.956 239.537 151.885 239.073 152.892 239.061L174.36 238.804C175.602 238.827 176.723 239.436 177.328 240.591C177.679 241.258 177.738 242.047 177.597 242.784ZM164.997 270.085C160.714 275.209 154.361 278.147 147.566 278.147H80.1635C72.3346 278.147 64.9586 274.112 60.9133 267.627C60.8821 267.576 60.8509 267.525 60.8196 267.474C59.371 265.133 61.1047 262.112 63.8575 262.112H163.986C166.906 262.112 168.578 265.445 166.824 267.779C166.239 268.563 165.63 269.332 164.997 270.085ZM181.873 238.156C180.331 235.296 177.426 233.622 174.298 233.657L152.877 233.914C150.268 233.945 147.82 235.167 146.231 237.231L142.455 242.14C141.846 242.932 140.925 243.397 139.925 243.416L90.3392 244.396C89.4177 244.396 88.5508 244.052 87.9182 243.397L82.151 237.407C80.5462 235.74 78.3088 234.839 75.9855 234.827L56.1808 235.065C54.9587 235.077 53.7365 235.284 52.6276 235.799C49.0938 237.442 47.2664 241.079 47.7506 244.657C49.1055 254.624 51.9794 263.026 56.544 270.346C61.5186 278.331 70.5697 283.291 80.1635 283.291H147.566C155.887 283.291 163.685 279.681 168.949 273.386C175.938 265.028 180.549 255.057 182.658 243.748C183.013 241.855 182.783 239.857 181.873 238.156Z" fill="#221130"/>
<path d="M241.853 332.07C241.853 332.07 230.284 264.189 272.732 257.293C288.877 254.667 312.434 259.896 312.434 259.896L302.727 276.969C302.727 276.969 279.299 266.257 267.062 287.513C260.143 299.536 261.045 332.92 261.045 332.92" fill="#FF7001"/>
<path d="M262.771 245.321L264.372 254.55C264.715 256.54 266.523 257.929 268.534 257.757L271.763 257.48C273.532 257.324 274.973 255.994 275.266 254.241L276.718 245.465C277.105 243.139 275.348 241.009 272.993 240.946L266.703 240.774C264.251 240.708 262.349 242.901 262.771 245.321Z" fill="#361E46"/>
<path d="M284.774 202.048L285.688 230.059C285.785 233.079 287.421 235.452 289.413 235.452H299.815C301.791 235.452 303.427 233.106 303.54 230.102L304.586 202.434C304.707 199.218 303.048 196.495 300.932 196.436L288.565 196.093C286.406 196.034 284.665 198.766 284.774 202.048Z" stroke="#FFA722" stroke-miterlimit="10"/>
<path d="M230.284 273.613V277.066C230.284 278.147 231.162 279.025 232.244 279.025H246.367C247.441 279.025 248.316 278.163 248.327 277.09L248.37 273.636C248.386 272.547 247.503 271.654 246.41 271.654H232.244C231.162 271.654 230.284 272.532 230.284 273.613Z" fill="#FFA722"/>
<path d="M232.732 274.432V276.052C232.732 276.555 233.142 276.969 233.65 276.969H240.264C240.768 276.969 241.178 276.563 241.182 276.063L241.205 274.444C241.209 273.933 240.795 273.515 240.284 273.515H233.65C233.142 273.515 232.732 273.925 232.732 274.432Z" fill="#FFE085"/>
<path d="M257.008 306.763L208.41 306.958C208.406 307.103 208.39 310.322 208.39 310.466V361.451H253.267C257.788 361.451 261.447 357.033 261.447 351.578L265.645 316.62C265.645 310.95 261.697 306.447 257.008 306.763Z" fill="#FF7001"/>
<path d="M231.947 136.246C224.809 156.039 220.545 203.55 221.936 230.991C222.088 233.992 223.9 236.326 226.098 236.326H235.778C236.945 236.326 238.058 235.655 238.847 234.476L273.973 173.295C274.68 172.242 275.071 170.868 275.071 169.436V137.905C275.071 134.713 273.157 132.141 270.83 132.196L235.618 133.054C234.052 133.093 232.638 134.326 231.947 136.246Z" fill="#C1E3F9"/>
<path d="M231.947 136.246H231.959H231.947ZM270.904 134.389C270.896 134.389 270.888 134.389 270.881 134.389L235.672 135.247C235.047 135.263 234.38 135.961 234.009 136.992C226.898 156.706 222.79 204.475 224.126 230.878C224.223 232.798 225.243 234.133 226.098 234.133H235.777C236.176 234.133 236.625 233.828 236.988 233.313L272.072 172.203C272.095 172.16 272.122 172.117 272.15 172.078C272.61 171.387 272.876 170.427 272.876 169.436V137.905C272.876 136.656 272.458 135.478 271.787 134.822C271.49 134.533 271.193 134.389 270.904 134.389ZM235.777 238.519H226.098C222.689 238.519 219.959 235.331 219.745 231.101C218.359 203.737 222.482 156.016 229.881 135.505C230.893 132.703 233.068 130.924 235.563 130.865L270.775 130.003C272.263 129.967 273.704 130.565 274.852 131.681C276.382 133.179 277.265 135.446 277.265 137.905V169.436C277.265 171.27 276.761 173.045 275.844 174.446L240.752 235.569C240.725 235.612 240.701 235.655 240.67 235.698C239.471 237.489 237.687 238.519 235.777 238.519Z" fill="#361E46"/>
<path d="M221.74 213.431C221.615 219.792 221.674 225.754 221.936 230.987C222.088 233.992 223.9 236.326 226.098 236.326H235.778C236.945 236.326 238.058 235.655 238.847 234.476L250.932 213.431" fill="#361E46"/>
<path d="M240.69 162.053C239.073 175.223 239.319 189.529 240.803 204.584C241.116 207.761 243.669 210.27 246.859 210.457C251.994 210.754 257.5 210.516 262.279 209.911C265.184 209.544 267.441 207.206 267.816 204.299C269.725 189.486 270.905 175.418 270.631 161.6C270.561 158.06 267.656 155.255 264.114 155.251C258.218 155.243 251.795 155.645 246.219 156.418C243.31 156.819 241.045 159.137 240.69 162.053Z" fill="#221130"/>
<path d="M253.384 140.956C253.446 139.567 252.958 138.24 252.006 137.226C251.061 136.207 249.768 135.626 248.378 135.587L244.196 135.474C243.782 134.564 242.873 133.932 241.807 133.932H234.774C233.329 133.932 232.154 135.103 232.154 136.551V138.412C232.154 139.86 233.329 141.035 234.774 141.035H241.807C242.72 141.035 243.529 140.566 243.993 139.856L248.257 139.973C248.538 139.981 248.714 140.125 248.796 140.215C248.878 140.301 249.011 140.488 249.003 140.769L246.238 204.787L234.977 209.743V209.673C234.977 207.472 233.193 205.685 230.987 205.685H224.755C222.549 205.685 220.764 207.472 220.764 209.673V215.901C220.764 218.106 222.549 219.889 224.755 219.889H230.987C233.193 219.889 234.977 218.106 234.977 215.901V214.535L250.506 207.702" fill="#221130"/>
<path d="M61.9404 310.529L38.3092 258.589L44.6816 189.322L42.495 189.119L36.0718 258.967L59.9451 311.434L61.9404 310.529ZM164.544 311.434L162.549 310.529L186.231 258.479L194.876 188.479L197.055 188.748L188.367 259.08" fill="#FF7001"/>
<path d="M186.079 257.028L174.56 279.533C173.174 282.237 175.142 285.445 178.179 285.445C185.204 285.445 191.736 281.835 195.469 275.888L204.228 261.933C206.172 258.834 203.943 254.807 200.28 254.811L189.542 254.819C188.07 254.874 186.75 255.72 186.079 257.028Z" fill="#4C2D5E"/>
<path d="M44.8688 257.028L56.3877 279.533C57.7739 282.237 55.8059 285.445 52.7681 285.445C45.7435 285.445 39.2109 281.835 35.478 275.888L26.7198 261.933C24.7753 258.834 27.0048 254.807 30.6636 254.811L41.4054 254.819C42.8735 254.874 44.1972 255.72 44.8688 257.028Z" fill="#4C2D5E"/>
<path d="M208.566 361.454H29.301C24.9161 361.454 21.3667 357.903 21.3667 353.525V315.984C21.3667 311.606 24.9161 308.055 29.301 308.055H208.566C212.947 308.055 216.5 311.606 216.5 315.984V353.525C216.5 357.903 212.947 361.454 208.566 361.454Z" fill="#FFA722"/>
<path d="M67.0166 364.99H158.406L153.689 357.419C151.143 353.334 148.965 352.752 144.287 352.83L81.2649 351.999C76.0716 352.089 71.3821 355.254 69.1876 360.151" fill="#221130"/>
<path d="M160.503 335.636C158.476 339.028 154.767 341.127 150.819 341.127H150.772L75.9622 340.834C71.6162 340.819 67.6217 338.259 65.7865 334.325L53.5336 308.055H176.973L160.503 335.636ZM256.414 305.862H34.8223L34.9824 308.055H51.1127L63.799 335.25C65.9935 339.952 70.765 343.004 75.9544 343.028L150.765 343.32H150.819C155.536 343.32 159.964 340.811 162.385 336.76L179.53 308.055H256.414" fill="#FF7001"/>
<path d="M67.0166 318.322H158.406L153.689 325.892C151.143 329.978 146.758 332.409 142.081 332.331L81.2649 331.309C76.0716 331.223 71.3821 328.058 69.1876 323.161" fill="#221130"/>
<path d="M82.202 308.254L83.2055 318.603C83.4281 320.905 85.3414 322.681 87.6568 322.735L129.558 323.719C131.928 323.769 133.951 322.009 134.216 319.656L135.501 308.328C135.806 305.612 133.682 303.235 130.952 303.235H86.7627C84.0567 303.235 81.9443 305.565 82.202 308.254Z" fill="#DBF1FF"/>
<path d="M83.346 308.144L84.3495 318.49C84.5135 320.214 85.9504 321.549 87.6841 321.588L129.585 322.568C131.366 322.63 132.873 321.303 133.076 319.528L134.357 308.199C134.466 307.231 134.158 306.256 133.51 305.53C132.858 304.8 131.924 304.383 130.952 304.383H86.7626C85.7825 304.383 84.8806 304.785 84.2207 305.506C83.5647 306.232 83.2523 307.169 83.346 308.144ZM129.671 324.866C129.625 324.866 129.578 324.866 129.531 324.862L87.6295 323.887C84.7361 323.816 82.3425 321.592 82.0614 318.712L81.0579 308.367C80.9056 306.759 81.4366 305.159 82.5221 303.965C83.6037 302.771 85.15 302.088 86.7626 302.088H130.952C132.58 302.088 134.138 302.783 135.224 304C136.309 305.214 136.825 306.837 136.641 308.457L135.357 319.781C135.025 322.704 132.596 324.866 129.671 324.866Z" fill="#221130"/>
<path d="M35.3023 203.187L42.8462 208.752C44.123 209.696 45.6654 210.204 47.2507 210.204H186.609C188.195 210.204 189.733 209.696 191.01 208.76L201.045 201.38C202.853 200.054 203.962 197.981 204.056 195.741C204.852 176.316 208.905 154.174 211.377 142.162C212.322 137.561 208.808 133.261 204.11 133.261H50.9328C47.891 133.261 45.1382 135.103 44.0371 137.928C36.9657 156.031 33.5647 176.616 32.3035 196.729C32.1473 199.25 33.2679 201.685 35.3023 203.187Z" fill="#C1E3F9"/>
<path d="M33.3773 184.261C32.9204 188.417 32.5651 192.584 32.3035 196.729C32.1473 199.254 33.2679 201.685 35.3023 203.183L42.8462 208.752C44.123 209.692 45.6654 210.204 47.2546 210.204H186.613C188.195 210.204 189.733 209.696 191.006 208.76L201.045 201.38C202.853 200.054 203.962 197.981 204.056 195.741C204.212 191.983 204.489 188.128 204.852 184.261" fill="#90C6ED"/>
<path d="M129.374 133.261H109.261L78.5469 210.204H98.66L129.374 133.261Z" fill="#DBF1FF"/>
<path d="M164.747 133.261H134.959L104.24 210.204H134.033L164.747 133.261Z" fill="#DBF1FF"/>
<path d="M64.3887 210.204H74.4433L105.158 133.261H95.103L64.3887 210.204Z" fill="#DBF1FF"/>
<path d="M209.23 141.717C206.824 153.397 202.674 175.937 201.861 195.652C201.799 197.228 201.026 198.672 199.745 199.613L199.234 199.991L36.9581 201.681L36.6067 201.423H36.6028C35.1698 200.362 34.381 198.66 34.4943 196.865C35.9038 174.361 39.8046 154.798 46.0795 138.728C46.8448 136.769 48.7933 135.454 50.933 135.454H204.111C205.688 135.454 207.168 136.153 208.164 137.374C209.159 138.596 209.546 140.176 209.23 141.717ZM211.565 134.603C209.729 132.356 207.016 131.068 204.111 131.068H50.933C47.001 131.068 43.4087 133.503 41.9913 137.132C35.5485 153.627 31.554 173.631 30.1132 196.592C29.9062 199.878 31.3627 203.004 33.9984 204.951L41.5422 210.516C43.1861 211.725 45.2127 212.393 47.2548 212.393H186.61C188.675 212.393 190.647 211.749 192.307 210.527L202.346 203.148C204.704 201.412 206.129 198.746 206.246 195.831C207.043 176.425 211.151 154.15 213.529 142.603C214.11 139.762 213.396 136.847 211.565 134.603Z" fill="#221130"/>
<path d="M43.9711 130.034C42.5459 130.042 41.3159 131.041 41.0309 132.438C40.1406 136.808 39.0316 145.815 44.5177 147.567C51.8234 149.905 198 147.508 198 147.508C198 147.508 212.517 148.57 216.41 132.972C216.887 131.048 215.438 129.183 213.458 129.199" fill="#221130"/>
<path d="M201.186 138.896H190.745C189.374 138.896 188.261 137.784 188.261 136.414C188.261 135.041 189.374 133.932 190.745 133.932H201.186C202.556 133.932 203.669 135.041 203.669 136.414C203.669 137.784 202.556 138.896 201.186 138.896Z" fill="#DBF1FF"/>
<path d="M54.2874 138.896H43.8462C42.4756 138.896 41.3667 137.784 41.3667 136.414C41.3667 135.041 42.4756 133.932 43.8462 133.932H54.2874C55.6579 133.932 56.7707 135.041 56.7707 136.414C56.7707 137.784 55.6579 138.896 54.2874 138.896Z" fill="#DBF1FF"/>
<path d="M109.511 203.78L100.691 192.171C100.574 191.308 99.8278 190.575 98.8438 190.625L62.3622 192.499C61.7453 192.53 61.1908 192.881 60.8941 193.42C60.8941 193.423 60.8902 193.423 60.8902 193.427L41.5385 194.036C41.0855 194.052 40.6755 194.208 40.4569 194.45C39.9766 194.988 40.6092 195.644 41.6088 195.644H61.3236C61.6282 195.894 62.0108 196.061 62.456 196.061H97.4655L104.041 205.497C104.314 205.891 104.763 206.126 105.24 206.126H108.348C109.554 206.126 110.242 204.744 109.511 203.78Z" fill="#221130"/>
<path d="M186.336 201.771L177.519 190.161C177.398 189.299 176.656 188.565 175.669 188.616L139.187 190.489C138.574 190.524 138.016 190.871 137.719 191.41C137.719 191.414 137.715 191.414 137.715 191.418L118.363 192.026C117.91 192.042 117.504 192.198 117.282 192.44C116.801 192.979 117.434 193.634 118.433 193.634H138.148C138.453 193.888 138.836 194.052 139.281 194.052H174.29L180.866 203.488C181.139 203.882 181.588 204.116 182.064 204.116H185.173C186.379 204.116 187.066 202.734 186.336 201.771Z" fill="#221130"/>
<path d="M29.8476 333.151H46.3996C48.5238 333.151 50.2457 331.426 50.2457 329.303V318.236C50.2457 316.109 48.5238 314.392 46.3996 314.392H29.8476C27.7234 314.392 26.0015 316.109 26.0015 318.236V329.303C26.0015 331.426 27.7234 333.151 29.8476 333.151Z" fill="#90C6ED"/>
<path d="M46.3998 314.392H29.8947C29.4651 316.144 29.3597 317.998 29.6369 319.676C29.9181 321.362 30.5741 323.005 31.5971 324.46C34.1742 328.132 39.0082 330.528 43.9594 330.595C46.1499 330.622 48.36 330.193 50.246 329.244V318.236C50.246 316.113 48.524 314.392 46.3998 314.392Z" fill="#DBF1FF"/>
<path d="M49.5702 340.397V349.361C49.5702 351.172 48.43 352.596 47.1141 352.436C39.3672 351.496 32.9869 351.554 27.3602 346.017C25.5719 344.257 26.0443 337.318 28.2505 337.318H47.3171C48.5588 337.318 49.5702 338.696 49.5702 340.397Z" fill="#90C6ED"/>
<path d="M47.3171 337.318H31.8389C31.874 338.029 31.9755 338.754 32.1356 339.484C32.7955 342.473 34.1739 345.318 36.1458 347.663C37.5241 349.295 39.1953 350.664 41.0344 351.749C42.9673 351.991 44.986 352.178 47.1141 352.436C48.4299 352.596 49.5701 351.172 49.5701 349.361V340.397C49.5701 338.696 48.5588 337.318 47.3171 337.318Z" fill="#DBF1FF"/>
<path d="M202.193 333.151H185.641C183.517 333.151 181.795 331.426 181.795 329.303V318.236C181.795 316.109 183.517 314.392 185.641 314.392H202.193C204.317 314.392 206.043 316.109 206.043 318.236V329.303C206.043 331.426 204.317 333.151 202.193 333.151Z" fill="#90C6ED"/>
<path d="M185.641 314.392H202.15C202.58 316.144 202.681 317.998 202.404 319.676C202.123 321.362 201.467 323.005 200.444 324.46C197.867 328.132 193.033 330.528 188.081 330.595C185.895 330.622 183.685 330.193 181.795 329.244V318.236C181.795 316.113 183.517 314.392 185.641 314.392Z" fill="#DBF1FF"/>
<path d="M182.471 340.397V349.361C182.471 351.172 183.611 352.596 184.931 352.436C192.674 351.496 199.054 351.554 204.681 346.017C206.473 344.257 205.997 337.318 203.794 337.318H184.724C183.482 337.318 182.471 338.696 182.471 340.397Z" fill="#90C6ED"/>
<path d="M184.724 337.318H200.202C200.167 338.029 200.065 338.754 199.905 339.484C199.249 342.473 197.867 345.318 195.895 347.663C194.517 349.295 192.845 350.664 191.006 351.749C189.074 351.991 187.055 352.178 184.931 352.436C183.611 352.596 182.471 351.172 182.471 349.361V340.397C182.471 338.696 183.482 337.318 184.724 337.318Z" fill="#DBF1FF"/>
</svg>
